<svg width="388" height="384" viewBox="0 0 388 384" fill="none" xmlns="http://www.w3.org/2000/svg">
<path d="M263.759 328.399C276.335 334.401 290.612 337.271 305.501 336.08C350.584 332.471 384.205 292.999 380.597 247.915C377.347 207.312 345.007 176.008 305.677 172.823C331.179 184.993 349.684 210.044 352.101 240.238C355.709 285.321 322.087 324.794 277.004 328.402C272.524 328.761 268.099 328.751 263.759 328.399Z" fill="#F95F52"/>
<path d="M204.726 296.38C213.248 306.78 224.539 315.143 238.031 320.209C278.885 335.55 324.44 314.867 339.78 274.013C353.596 237.219 338.192 196.613 305.15 177.699C322.43 198.789 328.315 228.257 318.041 255.619C302.701 296.473 257.146 317.156 216.292 301.816C212.232 300.292 208.372 298.467 204.726 296.38Z" fill="#00AACF"/>
<path d="M97.2296 278.745C102.679 286.637 110.217 293.242 119.513 297.633C147.659 310.927 181.254 298.888 194.548 270.741C206.521 245.392 197.945 215.626 175.561 200.248C186.612 216.251 189.073 237.544 180.17 256.394C166.875 284.54 133.281 296.58 105.134 283.286C102.337 281.964 99.6995 280.442 97.2296 278.745Z" fill="#02ABCF"/>
<path d="M69.4908 224.395C63.2964 234.885 59.6979 247.098 59.5902 260.156C59.2644 299.693 91.0519 332.008 130.589 332.334C166.197 332.628 195.947 306.874 201.747 272.87C189.186 294.141 165.947 308.327 139.467 308.109C99.9297 307.783 68.1429 275.467 68.4689 235.93C68.5013 232.001 68.8508 228.148 69.4908 224.395Z" fill="#02ABCF"/>
<path d="M99.2188 175.73C84.4831 177.347 69.9627 182.75 57.1646 192.17C18.4141 220.692 10.122 275.227 38.6436 313.977C64.3308 348.877 111.117 359.069 148.47 339.915C118.588 343.196 87.8183 330.907 68.7165 304.954C40.1951 266.204 48.4876 211.669 87.2381 183.147C91.0891 180.313 95.097 177.843 99.2188 175.73Z" fill="#02ABCF"/>
<path d="M272.129 70.316C279.041 82.2452 283 96.0993 283 110.879C283 155.627 246.724 191.902 201.976 191.902C161.674 191.902 128.246 162.478 122 123.941C136.017 148.131 162.185 164.403 192.154 164.403C236.903 164.403 273.179 128.127 273.179 83.3795C273.179 78.9321 272.818 74.5688 272.129 70.316Z" fill="#FB5F55"/>
<path d="M220.516 11.8468C237.099 10.496 254.248 13.3621 270.355 21.0213C319.12 44.2117 339.853 102.544 316.662 151.31C295.776 195.23 246.387 216.411 201.152 203.246C234.779 200.508 266.074 180.423 281.606 147.762C304.796 98.996 284.063 40.6636 235.297 17.4732C230.45 15.1683 225.508 13.2995 220.516 11.8468Z" fill="#FB5F55"/>
</svg>
